<svg width="24" height="30" viewBox="0 0 24 30" fill="none" xmlns="http://www.w3.org/2000/svg">
<path d="M1.33325 27.5333V2.46663C1.33325 2.25445 1.41754 2.05097 1.56757 1.90094C1.7176 1.75091 1.92108 1.66663 2.13325 1.66663H17.6693C17.8814 1.66681 18.0847 1.75122 18.2346 1.90129L22.4319 6.09863C22.5065 6.17316 22.5657 6.26171 22.606 6.35919C22.6462 6.45667 22.6668 6.56115 22.6666 6.66663V27.5333C22.6666 27.6384 22.6459 27.7424 22.6057 27.8394C22.5655 27.9365 22.5066 28.0247 22.4323 28.099C22.358 28.1733 22.2698 28.2322 22.1727 28.2724C22.0757 28.3126 21.9716 28.3333 21.8666 28.3333H2.13325C2.02819 28.3333 1.92417 28.3126 1.82711 28.2724C1.73004 28.2322 1.64185 28.1733 1.56757 28.099C1.49328 28.0247 1.43435 27.9365 1.39415 27.8394C1.35394 27.7424 1.33325 27.6384 1.33325 27.5333V27.5333Z" stroke="#0047BB" stroke-width="1.5" stroke-linecap="round" stroke-linejoin="round"/>
<path d="M17.3333 6.19997V2.13864C17.3334 2.04541 17.3612 1.95432 17.4131 1.87685C17.4649 1.79939 17.5386 1.73902 17.6247 1.70336C17.7109 1.66771 17.8057 1.65836 17.8971 1.6765C17.9886 1.69465 18.0726 1.73947 18.1386 1.80531L22.5279 6.19464C22.5944 6.2604 22.6398 6.34447 22.6583 6.43614C22.6768 6.5278 22.6676 6.62291 22.6319 6.70932C22.5961 6.79572 22.5354 6.86952 22.4575 6.92129C22.3796 6.97306 22.2881 7.00045 22.1946 6.99997H18.1333C17.9211 6.99997 17.7176 6.91569 17.5676 6.76566C17.4175 6.61563 17.3333 6.41215 17.3333 6.19997Z" fill="#0047BB" stroke="#0047BB" stroke-width="1.5" stroke-linecap="round" stroke-linejoin="round"/>
<path d="M10.1799 12.8866L11.5652 9.94922C11.6027 9.86526 11.6637 9.79395 11.7408 9.74391C11.8179 9.69387 11.9079 9.66724 11.9999 9.66724C12.0918 9.66724 12.1818 9.69387 12.2589 9.74391C12.3361 9.79395 12.397 9.86526 12.4345 9.94922L13.8212 12.8866L16.9185 13.3612C17.3159 13.4212 17.4732 13.9332 17.1852 14.2266L14.9452 16.5106L15.4732 19.7386C15.5412 20.1532 15.1265 20.4692 14.7705 20.2732L11.9999 18.7492L9.22919 20.2732C8.87319 20.4692 8.45852 20.1532 8.52652 19.7399L9.05452 16.5106L6.81452 14.2266C6.52519 13.9332 6.68385 13.4212 7.08119 13.3599L10.1799 12.8866V12.8866Z" stroke="#0047BB" stroke-width="1.5" stroke-linecap="round" stroke-linejoin="round"/>
</svg>
